<svg width="416" height="292" viewBox="0 0 416 292" fill="none" xmlns="http://www.w3.org/2000/svg">
<rect width="416" height="290.977" transform="translate(0 0.252686)" fill="#F3F4F2"/>
<g clip-path="url(#clip0_143_5690)">
<path d="M235.525 151.168C234.724 151.169 233.924 151.216 233.128 151.308C232.333 151.217 231.532 151.17 230.731 151.168C216.781 151.168 205.458 164.601 205.458 181.199C205.458 197.796 216.781 211.229 230.731 211.229H235.525C249.476 211.229 260.789 197.795 260.789 181.199C260.789 164.602 249.476 151.168 235.525 151.168Z" fill="#C9CAC8"/>
<path d="M325.096 149.385H314.212C309.9 149.385 306.399 159.726 306.399 172.485C306.399 185.244 309.9 195.585 314.212 195.585H325.093C329.406 195.585 332.906 185.234 332.906 172.485C332.906 159.736 329.408 149.385 325.096 149.385Z" fill="#C9CAC8"/>
<path d="M116.439 151.168C115.638 151.17 114.838 151.217 114.042 151.308C113.246 151.216 112.446 151.169 111.644 151.168C97.6939 151.168 86.3816 164.601 86.3816 181.199C86.3816 197.796 97.6939 211.229 111.644 211.229H116.439C130.39 211.229 141.702 197.795 141.702 181.199C141.702 164.602 130.379 151.168 116.439 151.168Z" fill="#C9CAC8"/>
<path d="M291.166 89.3796C284.62 87.8476 277.767 86.4792 270.754 86.4792H270.645C264.399 86.4865 258.57 89.5744 254.987 94.6802C252.726 97.9038 250.396 101.074 247.995 104.191C239.819 114.82 230.856 124.823 221.182 134.116C213.281 136.07 205.247 137.669 197.08 138.912C194.418 139.316 191.743 139.68 189.055 140.004C182.789 140.764 176.458 141.302 170.063 141.618C165.589 141.841 161.087 141.953 156.556 141.953C141.402 141.959 126.274 140.689 111.334 138.156C103.917 136.897 96.6084 135.337 89.4079 133.477L89.3831 133.471L89.4297 133.443C103.822 124.787 119.126 117.742 135.065 112.435C137.944 109.754 140.89 107.148 143.904 104.616C150.374 99.1801 157.138 94.1039 164.167 89.4107C185.129 83.3148 206.855 80.2297 228.689 80.2485C235.798 80.2485 242.827 80.5662 249.776 81.2015C254.181 81.6013 258.548 82.1241 262.878 82.7698C272.504 84.2024 282.243 86.3332 291.167 89.3755L291.166 89.3796Z" fill="white"/>
<path d="M232.264 200.182L235.742 198.908C267.178 187.396 299.752 179.255 332.914 174.623C334.968 167.024 336.006 159.187 336 151.316C336.007 142.908 334.823 134.542 332.483 126.465C329.192 120.647 325.258 115.216 320.755 110.273C314.939 103.885 308.227 98.3693 300.829 93.8981C294.696 90.1791 287.826 87.837 280.695 87.0345C277.393 86.6682 274.072 86.485 270.75 86.4855H270.641C264.395 86.4927 258.565 89.5806 254.983 94.6864C252.722 97.91 250.391 101.08 247.991 104.198C239.814 114.827 230.851 124.829 221.178 134.122C213.279 136.072 205.246 137.669 197.079 138.912C194.418 139.316 191.743 139.68 189.055 140.004C182.788 140.764 176.458 141.302 170.063 141.618C165.589 141.841 161.087 141.953 156.556 141.953C141.402 141.959 126.274 140.689 111.334 138.156C103.917 136.897 96.6083 135.337 89.4078 133.477C83.2437 143.275 79.9824 154.613 80.0009 166.182C79.9844 176.84 82.7512 187.318 88.0285 196.583L214.372 202.892C220.458 203.197 226.543 202.275 232.264 200.182Z" fill="#EBEBEA"/>
<path d="M280.909 123.803C279.085 125.154 277.174 126.385 275.189 127.489C269.728 130.522 263.771 132.563 257.594 133.517C252.298 134.347 246.906 134.368 241.603 133.579C242.128 130.443 243.471 127.5 245.495 125.046C247.52 122.591 250.155 120.712 253.138 119.595C259.302 122.349 265.94 123.892 272.689 124.139C275.434 124.24 278.182 124.127 280.909 123.803Z" fill="white"/>
<path d="M252.525 149.657C234.354 151.635 216.027 151.748 197.832 149.994C216.771 154.299 236.737 155.588 257.131 153.377C283.275 150.544 307.497 142.246 328.78 129.745C305.079 139.886 279.493 146.733 252.525 149.657Z" fill="white"/>
<path d="M267.427 173.143C257.266 174.249 247.018 174.313 236.844 173.332C247.715 175.797 258.921 176.436 270.002 175.224C284.145 173.71 297.802 169.205 310.063 162.009C296.483 167.812 282.113 171.564 267.427 173.143Z" fill="white"/>
</g>
<defs>
<clipPath id="clip0_143_5690">
<rect width="256" height="130.977" fill="white" transform="translate(80 80.2527)"/>
</clipPath>
</defs>
</svg>
