
<!DOCTYPE svg PUBLIC "-//W3C//DTD SVG 1.1//EN" "http://www.w3.org/Graphics/SVG/1.1/DTD/svg11.dtd">
<svg xmlns="http://www.w3.org/2000/svg" version="1.1" width="2029px" height="850px" style="shape-rendering:geometricPrecision; text-rendering:geometricPrecision; image-rendering:optimizeQuality; fill-rule:evenodd; clip-rule:evenodd" xmlns:xlink="http://www.w3.org/1999/xlink">
<g><path style="opacity:0.989" fill="#013478" d="M 950.5,70.5 C 1121.68,66.0706 1291.35,79.904 1459.5,112C 1542.55,128.344 1623.55,151.677 1702.5,182C 1747.61,199.723 1790.61,221.39 1831.5,247C 1867.96,269.847 1899.46,298.347 1926,332.5C 1963.88,385.878 1967.55,441.545 1937,499.5C 1920.85,525.995 1900.68,549.162 1876.5,569C 1832.9,603.655 1785.23,631.989 1733.5,654C 1662.63,684.069 1589.63,707.735 1514.5,725C 1349.73,761.927 1182.9,779.76 1014,778.5C 841.985,779.815 672.151,761.315 504.5,723C 425.942,704.703 349.942,679.036 276.5,646C 224.658,622.759 177.658,592.426 135.5,555C 113.726,534.276 96.2257,510.443 83,483.5C 62.6304,433.587 66.9637,385.92 96,340.5C 114.421,313.514 136.587,290.014 162.5,270C 197.853,243.306 235.853,220.639 276.5,202C 369.313,160.953 465.646,130.953 565.5,112C 692.827,87.4684 821.161,73.635 950.5,70.5 Z"/></g>
<g><path style="opacity:1" fill="#fcfcfd" d="M 956.5,101.5 C 1117.76,98.3284 1277.76,110.828 1436.5,139C 1519.44,154.317 1600.44,176.65 1679.5,206C 1736.37,227.094 1789.04,255.428 1837.5,291C 1861.54,309.373 1881.71,331.206 1898,356.5C 1922.59,398.704 1923.93,441.704 1902,485.5C 1887.19,510.318 1868.69,532.151 1846.5,551C 1804.81,584.029 1759.14,610.695 1709.5,631C 1625.01,665.206 1538.01,690.873 1448.5,708C 1214.12,750.794 978.454,759.127 741.5,733C 638.804,721.83 537.804,702.163 438.5,674C 377.971,656.492 319.638,633.492 263.5,605C 221.275,583.627 183.775,555.794 151,521.5C 134.021,502.22 121.688,480.22 114,455.5C 107.096,426.532 109.762,398.532 122,371.5C 134.623,346.528 151.456,324.695 172.5,306C 211.163,273.314 253.829,246.647 300.5,226C 361.999,198.945 425.332,177.278 490.5,161C 593.765,135.567 698.432,118.567 804.5,110C 855.283,106.362 905.95,103.528 956.5,101.5 Z"/></g>
<g><path style="opacity:1" fill="#003478" d="M 972.5,128.5 C 1121.57,126.171 1269.57,137.338 1416.5,162C 1494.79,175.272 1571.46,194.939 1646.5,221C 1690.71,236.289 1733.04,255.622 1773.5,279C 1800.29,295.113 1824.79,314.28 1847,336.5C 1864.8,355.332 1877.13,377.332 1884,402.5C 1888.97,432.652 1883.3,460.652 1867,486.5C 1850.92,509.918 1831.42,530.085 1808.5,547C 1769.03,574.575 1726.7,597.242 1681.5,615C 1597.87,647.39 1511.87,671.057 1423.5,686C 1235.4,718.321 1046.06,728.321 855.5,716C 720.932,708.738 588.599,687.738 458.5,653C 388.129,634.213 321.129,607.213 257.5,572C 228.704,554.999 202.537,534.499 179,510.5C 160.098,490.03 148.098,466.03 143,438.5C 140.247,418.688 142.913,399.688 151,381.5C 164.947,353.211 184.447,329.377 209.5,310C 245.957,282.758 285.291,260.091 327.5,242C 386.523,217.326 447.19,197.659 509.5,183C 619.083,157.488 730.083,141.155 842.5,134C 885.975,131.592 929.309,129.759 972.5,128.5 Z"/></g>
<g><path style="opacity:1" fill="#fdfdfe" d="M 757.5,191.5 C 793.643,190.518 829.643,192.351 865.5,197C 921.157,205.76 976.824,214.427 1032.5,223C 1114.66,235.209 1196.33,232.709 1277.5,215.5C 1285.66,215.998 1289.66,220.331 1289.5,228.5C 1289.3,236.595 1286.47,243.595 1281,249.5C 1260.69,267.574 1237.19,279.74 1210.5,286C 1171.46,292.187 1132.46,291.854 1093.5,285C 1073.41,280.748 1053.41,276.082 1033.5,271C 1001.85,261.755 970.017,253.255 938,245.5C 938.389,249.881 936.889,253.381 933.5,256C 900.144,279.279 870.644,306.779 845,338.5C 840.5,345.5 836,352.5 831.5,359.5C 853.545,360.331 875.545,359.664 897.5,357.5C 894.538,338.215 900.205,322.049 914.5,309C 926.97,299.279 940.303,297.946 954.5,305C 963.251,312.587 966.418,322.087 964,333.5C 959.783,352.716 948.283,365.216 929.5,371C 928.643,371.689 927.977,372.522 927.5,373.5C 929.316,375.817 931.316,377.984 933.5,380C 937.615,382.448 941.448,385.281 945,388.5C 943.957,398.113 938.791,401.28 929.5,398C 920.254,392.535 911.921,385.868 904.5,378C 874.321,378.682 844.321,381.348 814.5,386C 791.728,422.435 768.561,458.602 745,494.5C 724.135,525.043 699.968,552.877 672.5,578C 638.29,608.182 598.29,621.849 552.5,619C 509.866,613.623 481.366,590.789 467,550.5C 455.834,493.679 475.001,450.513 524.5,421C 533.936,415.41 544.103,412.243 555,411.5C 563.41,410.337 569.744,413.337 574,420.5C 574.837,424.295 574.504,427.961 573,431.5C 562.288,437.55 552.121,444.383 542.5,452C 530.096,462.64 521.596,475.807 517,491.5C 512.931,518.197 522.765,537.697 546.5,550C 562.692,555.64 579.025,555.973 595.5,551C 614.084,544.876 631.084,535.876 646.5,524C 674.786,498.717 700.619,471.217 724,441.5C 735.36,426.307 746.527,410.973 757.5,395.5C 745.062,394.152 733.062,395.985 721.5,401C 712.507,405.495 703.84,410.495 695.5,416C 683.662,417.155 679.495,411.988 683,400.5C 692.456,391.849 703.29,385.349 715.5,381C 724.659,377.71 733.992,375.044 743.5,373C 756.567,370.712 769.567,368.212 782.5,365.5C 795.333,348.5 808.167,331.5 821,314.5C 847.11,284.061 877.61,259.227 912.5,240C 911.672,239.085 910.672,238.419 909.5,238C 886.171,233.667 862.837,229.334 839.5,225C 817.926,222.071 796.26,220.238 774.5,219.5C 738.671,219.041 705.004,227.208 673.5,244C 654.608,254.966 641.775,270.799 635,291.5C 631.326,320.825 644.159,333.992 673.5,331C 701.617,322.892 723.45,306.392 739,281.5C 748.094,275.662 752.928,278.162 753.5,289C 744.448,318.423 728.115,343.09 704.5,363C 679.248,383.09 650.915,389.757 619.5,383C 591.912,371.029 577.912,349.862 577.5,319.5C 578.522,295.132 587.022,273.799 603,255.5C 631.454,226.682 665.621,207.848 705.5,199C 722.799,195.219 740.132,192.719 757.5,191.5 Z"/></g>
<g><path style="opacity:1" fill="#07367a" d="M 933.5,317.5 C 944.437,317.828 947.604,323.162 943,333.5C 938.493,344.031 930.66,349.864 919.5,351C 916.612,336.616 921.279,325.449 933.5,317.5 Z"/></g>
<g><path style="opacity:1" fill="#fdfdfe" d="M 1513.5,319.5 C 1531.5,319.333 1549.5,319.5 1567.5,320C 1568.52,321.049 1568.68,322.216 1568,323.5C 1518.58,399.325 1469.92,475.659 1422,552.5C 1418.47,558.221 1415.47,564.221 1413,570.5C 1411.55,586.693 1418.72,592.193 1434.5,587C 1437.58,585.861 1440.58,584.528 1443.5,583C 1453.86,575.818 1463.86,568.151 1473.5,560C 1489.17,544.333 1504.83,528.667 1520.5,513C 1522.5,512.333 1524.5,512.333 1526.5,513C 1530.33,516.833 1534.17,520.667 1538,524.5C 1538.67,525.833 1538.67,527.167 1538,528.5C 1517.2,554.298 1494.04,577.798 1468.5,599C 1453.17,611.667 1435.84,620.667 1416.5,626C 1385.75,632.554 1367.92,620.387 1363,589.5C 1362.59,589.043 1362.09,588.709 1361.5,588.5C 1348.53,601.631 1333.53,611.798 1316.5,619C 1294.4,628.297 1273.73,625.963 1254.5,612C 1242.19,600.54 1235.35,586.373 1234,569.5C 1233.48,559.157 1233.65,548.823 1234.5,538.5C 1233.13,538.343 1231.79,538.51 1230.5,539C 1211.32,553.065 1189.98,558.732 1166.5,556C 1146.13,547.421 1135.8,531.921 1135.5,509.5C 1134.32,509.281 1133.32,509.614 1132.5,510.5C 1109.36,546.801 1086.03,582.968 1062.5,619C 1053.76,620.14 1044.93,620.64 1036,620.5C 1027.59,620.493 1019.26,620.16 1011,619.5C 1010.26,616.217 1010.92,613.217 1013,610.5C 1042.59,565.554 1070.59,519.554 1097,472.5C 1099.81,466.618 1100.14,460.618 1098,454.5C 1096,451.833 1093.33,450.5 1090,450.5C 1080.87,452.317 1072.7,456.151 1065.5,462C 1042.18,481.315 1021.68,503.148 1004,527.5C 992.577,543.345 980.91,559.012 969,574.5C 952.017,594.828 931.184,609.661 906.5,619C 878.891,628.418 853.557,624.418 830.5,607C 820.24,597.99 813.407,586.823 810,573.5C 809.363,571.697 808.197,570.364 806.5,569.5C 796.251,580.582 784.918,590.415 772.5,599C 770.5,599.667 768.5,599.667 766.5,599C 762.388,594.609 758.888,589.776 756,584.5C 755.333,582.5 755.333,580.5 756,578.5C 765,570.167 774,561.833 783,553.5C 786.385,549.783 789.385,545.783 792,541.5C 799,526.5 806,511.5 813,496.5C 836.228,452.291 872.395,425.124 921.5,415C 927.237,414.211 932.903,414.544 938.5,416C 942.65,420.754 945.483,426.254 947,432.5C 947.667,434.167 947.667,435.833 947,437.5C 921.554,446.626 899.554,460.959 881,480.5C 869.63,493.906 861.964,509.239 858,526.5C 855.25,541.036 857.917,554.37 866,566.5C 878.905,578.568 893.405,580.734 909.5,573C 935.452,559.97 952.619,539.47 961,511.5C 967.839,488.206 968.172,464.873 962,441.5C 961.333,438.167 961.333,434.833 962,431.5C 968.062,425.882 974.896,421.382 982.5,418C 989.624,416.485 994.791,418.985 998,425.5C 1005.75,439.839 1009.42,455.173 1009,471.5C 1009.56,472.022 1010.23,472.355 1011,472.5C 1026.15,457.346 1041.32,442.179 1056.5,427C 1069.1,416.532 1083.44,409.532 1099.5,406C 1120.55,402.764 1134.05,411.264 1140,431.5C 1140.88,438.159 1141.71,444.826 1142.5,451.5C 1148.92,443.574 1155.92,436.074 1163.5,429C 1173.22,420.97 1184.22,415.304 1196.5,412C 1220.14,407.728 1236.31,416.561 1245,438.5C 1247.72,456.202 1242.22,470.702 1228.5,482C 1218.28,487.992 1207.62,488.992 1196.5,485C 1185.46,477.41 1181.13,466.91 1183.5,453.5C 1180.39,454.091 1177.89,455.758 1176,458.5C 1165.73,470.324 1161.73,483.991 1164,499.5C 1168.75,516.555 1179.92,523.388 1197.5,520C 1205.61,517.631 1213.28,514.298 1220.5,510C 1241.33,495.175 1261,478.841 1279.5,461C 1293.93,447.953 1309.6,436.619 1326.5,427C 1349.47,414.99 1373.13,413.323 1397.5,422C 1410.52,428.692 1418.69,439.192 1422,453.5C 1423.05,454.517 1424.22,454.684 1425.5,454C 1455.06,409.284 1484.39,364.451 1513.5,319.5 Z"/></g>
<g><path style="opacity:1" fill="#023578" d="M 1363.5,451.5 C 1385.82,448.981 1395.32,458.647 1392,480.5C 1389.83,486.336 1387.67,492.169 1385.5,498C 1386.36,500.868 1388.03,503.201 1390.5,505C 1379.03,530.793 1362.03,552.126 1339.5,569C 1330.54,575.987 1320.37,579.82 1309,580.5C 1300.35,580.526 1294.35,576.526 1291,568.5C 1287.65,556.76 1287.98,545.093 1292,533.5C 1302.95,503.567 1321.11,479.067 1346.5,460C 1351.98,456.593 1357.65,453.76 1363.5,451.5 Z"/></g>
</svg>
